<mxfile host="app.diagrams.net" modified="2024-04-11T02:58:26.767Z" agent="Mozilla/5.0 (X11; Linux x86_64) AppleWebKit/537.36 (KHTML, like Gecko) Chrome/113.0.0.0 Safari/537.36" version="24.2.3" etag="bIX5wayfUG88Yw9I-PfC" type="github">
  <diagram name="Page-1" id="t7LYfsla73pTffPFRp7u">
    <mxGraphModel>
      <root>
        <mxCell id="0" />
        <mxCell id="1" parent="0" />
      </root>
    </mxGraphModel>
  </diagram>
</mxfile>
